<mxfile host="app.diagrams.net" modified="2021-10-07T05:07:53.466Z" agent="5.0 (X11)" etag="jP8PWYidyfV6Qz4jMkfT" version="15.4.3" type="github">
  <diagram id="s59gSEYK92OxBtgS_U3n" name="Page-1">
    <mxGraphModel dx="2500" dy="2047" grid="1" gridSize="10" guides="1" tooltips="1" connect="1" arrows="1" fold="1" page="1" pageScale="1" pageWidth="827" pageHeight="1169" math="0" shadow="0">
      <root>
        <mxCell id="0" />
        <mxCell id="1" parent="0" />
        <mxCell id="wE-_WhlfQiMFLJXKhOxG-1" value="Clientes" style="rounded=0;whiteSpace=wrap;html=1;" vertex="1" parent="1">
          <mxGeometry x="90" y="140" width="120" height="60" as="geometry" />
        </mxCell>
        <mxCell id="wE-_WhlfQiMFLJXKhOxG-2" value="Platos" style="rounded=0;whiteSpace=wrap;html=1;" vertex="1" parent="1">
          <mxGeometry x="450" y="470" width="120" height="60" as="geometry" />
        </mxCell>
        <mxCell id="wE-_WhlfQiMFLJXKhOxG-5" value="Cuenta" style="rounded=0;whiteSpace=wrap;html=1;" vertex="1" parent="1">
          <mxGeometry x="450" y="-170" width="120" height="60" as="geometry" />
        </mxCell>
        <mxCell id="wE-_WhlfQiMFLJXKhOxG-6" value="Pedidos" style="rounded=0;whiteSpace=wrap;html=1;" vertex="1" parent="1">
          <mxGeometry x="450" y="140" width="120" height="60" as="geometry" />
        </mxCell>
        <mxCell id="wE-_WhlfQiMFLJXKhOxG-7" value="Realiza" style="rhombus;whiteSpace=wrap;html=1;" vertex="1" parent="1">
          <mxGeometry x="290" y="130" width="80" height="80" as="geometry" />
        </mxCell>
        <mxCell id="wE-_WhlfQiMFLJXKhOxG-18" value="" style="endArrow=none;html=1;rounded=0;strokeColor=default;edgeStyle=orthogonalEdgeStyle;exitX=1;exitY=0.5;exitDx=0;exitDy=0;entryX=0;entryY=0.5;entryDx=0;entryDy=0;" edge="1" parent="1" source="wE-_WhlfQiMFLJXKhOxG-1" target="wE-_WhlfQiMFLJXKhOxG-7">
          <mxGeometry width="50" height="50" relative="1" as="geometry">
            <mxPoint x="290" y="160" as="sourcePoint" />
            <mxPoint x="340" y="110" as="targetPoint" />
          </mxGeometry>
        </mxCell>
        <mxCell id="wE-_WhlfQiMFLJXKhOxG-19" value="" style="endArrow=none;html=1;rounded=0;strokeColor=default;edgeStyle=orthogonalEdgeStyle;exitX=1;exitY=0.5;exitDx=0;exitDy=0;entryX=0;entryY=0.5;entryDx=0;entryDy=0;" edge="1" parent="1" source="wE-_WhlfQiMFLJXKhOxG-7" target="wE-_WhlfQiMFLJXKhOxG-6">
          <mxGeometry width="50" height="50" relative="1" as="geometry">
            <mxPoint x="390" y="169.5" as="sourcePoint" />
            <mxPoint x="480" y="169.5" as="targetPoint" />
          </mxGeometry>
        </mxCell>
        <mxCell id="wE-_WhlfQiMFLJXKhOxG-20" value="1" style="text;html=1;strokeColor=none;fillColor=none;align=left;verticalAlign=middle;whiteSpace=wrap;rounded=0;" vertex="1" parent="1">
          <mxGeometry x="220" y="140" width="60" height="30" as="geometry" />
        </mxCell>
        <mxCell id="wE-_WhlfQiMFLJXKhOxG-23" value="&lt;div align=&quot;right&quot;&gt;N&lt;/div&gt;" style="text;html=1;strokeColor=none;fillColor=none;align=right;verticalAlign=middle;whiteSpace=wrap;rounded=0;" vertex="1" parent="1">
          <mxGeometry x="390" y="140" width="60" height="30" as="geometry" />
        </mxCell>
        <mxCell id="wE-_WhlfQiMFLJXKhOxG-24" value="&lt;div align=&quot;center&quot;&gt;Id_cliente&lt;/div&gt;" style="ellipse;whiteSpace=wrap;html=1;strokeWidth=1;align=center;" vertex="1" parent="1">
          <mxGeometry x="-10" y="50" width="120" height="40" as="geometry" />
        </mxCell>
        <mxCell id="wE-_WhlfQiMFLJXKhOxG-25" value="" style="endArrow=none;html=1;rounded=0;strokeColor=default;exitX=0;exitY=0.5;exitDx=0;exitDy=0;" edge="1" parent="1" source="wE-_WhlfQiMFLJXKhOxG-1" target="wE-_WhlfQiMFLJXKhOxG-24">
          <mxGeometry width="50" height="50" relative="1" as="geometry">
            <mxPoint x="380" y="180" as="sourcePoint" />
            <mxPoint x="460" y="180" as="targetPoint" />
          </mxGeometry>
        </mxCell>
        <mxCell id="wE-_WhlfQiMFLJXKhOxG-26" value="&lt;div align=&quot;center&quot;&gt;nombre&lt;/div&gt;" style="ellipse;whiteSpace=wrap;html=1;strokeWidth=1;align=center;" vertex="1" parent="1">
          <mxGeometry x="-60" y="90" width="120" height="40" as="geometry" />
        </mxCell>
        <mxCell id="wE-_WhlfQiMFLJXKhOxG-27" value="" style="endArrow=none;html=1;rounded=0;strokeColor=default;exitX=0;exitY=0.75;exitDx=0;exitDy=0;" edge="1" parent="1" target="wE-_WhlfQiMFLJXKhOxG-26" source="wE-_WhlfQiMFLJXKhOxG-1">
          <mxGeometry width="50" height="50" relative="1" as="geometry">
            <mxPoint x="80" y="230" as="sourcePoint" />
            <mxPoint x="450" y="240" as="targetPoint" />
          </mxGeometry>
        </mxCell>
        <mxCell id="wE-_WhlfQiMFLJXKhOxG-28" value="&lt;div align=&quot;center&quot;&gt;Apellido&lt;/div&gt;" style="ellipse;whiteSpace=wrap;html=1;strokeWidth=1;align=center;" vertex="1" parent="1">
          <mxGeometry x="-80" y="135" width="120" height="40" as="geometry" />
        </mxCell>
        <mxCell id="wE-_WhlfQiMFLJXKhOxG-29" value="" style="endArrow=none;html=1;rounded=0;strokeColor=default;exitX=0;exitY=0.75;exitDx=0;exitDy=0;" edge="1" parent="1" target="wE-_WhlfQiMFLJXKhOxG-28" source="wE-_WhlfQiMFLJXKhOxG-1">
          <mxGeometry width="50" height="50" relative="1" as="geometry">
            <mxPoint x="140" y="270" as="sourcePoint" />
            <mxPoint x="510" y="280" as="targetPoint" />
          </mxGeometry>
        </mxCell>
        <mxCell id="wE-_WhlfQiMFLJXKhOxG-30" value="&lt;div align=&quot;center&quot;&gt;telefono&lt;/div&gt;" style="ellipse;whiteSpace=wrap;html=1;strokeWidth=1;align=center;" vertex="1" parent="1">
          <mxGeometry x="-80" y="180" width="120" height="40" as="geometry" />
        </mxCell>
        <mxCell id="wE-_WhlfQiMFLJXKhOxG-31" value="" style="endArrow=none;html=1;rounded=0;strokeColor=default;entryX=1;entryY=0.5;entryDx=0;entryDy=0;exitX=0;exitY=0.9;exitDx=0;exitDy=0;exitPerimeter=0;" edge="1" parent="1" target="wE-_WhlfQiMFLJXKhOxG-30" source="wE-_WhlfQiMFLJXKhOxG-1">
          <mxGeometry width="50" height="50" relative="1" as="geometry">
            <mxPoint x="140" y="300" as="sourcePoint" />
            <mxPoint x="510" y="310" as="targetPoint" />
          </mxGeometry>
        </mxCell>
        <mxCell id="wE-_WhlfQiMFLJXKhOxG-32" value="&lt;div align=&quot;center&quot;&gt;email&lt;/div&gt;" style="ellipse;whiteSpace=wrap;html=1;strokeWidth=1;align=center;" vertex="1" parent="1">
          <mxGeometry x="-50" y="230" width="120" height="40" as="geometry" />
        </mxCell>
        <mxCell id="wE-_WhlfQiMFLJXKhOxG-33" value="" style="endArrow=none;html=1;rounded=0;strokeColor=default;exitX=0.333;exitY=1;exitDx=0;exitDy=0;exitPerimeter=0;" edge="1" parent="1" target="wE-_WhlfQiMFLJXKhOxG-32" source="wE-_WhlfQiMFLJXKhOxG-1">
          <mxGeometry width="50" height="50" relative="1" as="geometry">
            <mxPoint x="245" y="270" as="sourcePoint" />
            <mxPoint x="615" y="280" as="targetPoint" />
          </mxGeometry>
        </mxCell>
        <mxCell id="wE-_WhlfQiMFLJXKhOxG-34" value="&lt;div align=&quot;center&quot;&gt;password&lt;br&gt;&lt;/div&gt;" style="ellipse;whiteSpace=wrap;html=1;strokeWidth=1;align=center;" vertex="1" parent="1">
          <mxGeometry y="270" width="120" height="40" as="geometry" />
        </mxCell>
        <mxCell id="wE-_WhlfQiMFLJXKhOxG-35" value="" style="endArrow=none;html=1;rounded=0;strokeColor=default;exitX=0.433;exitY=0.983;exitDx=0;exitDy=0;entryX=0.5;entryY=0;entryDx=0;entryDy=0;exitPerimeter=0;" edge="1" parent="1" target="wE-_WhlfQiMFLJXKhOxG-34" source="wE-_WhlfQiMFLJXKhOxG-1">
          <mxGeometry width="50" height="50" relative="1" as="geometry">
            <mxPoint x="320" y="270" as="sourcePoint" />
            <mxPoint x="690" y="280" as="targetPoint" />
          </mxGeometry>
        </mxCell>
        <mxCell id="wE-_WhlfQiMFLJXKhOxG-37" value="&lt;div align=&quot;center&quot;&gt;direccion&lt;/div&gt;" style="ellipse;whiteSpace=wrap;html=1;strokeWidth=1;align=center;" vertex="1" parent="1">
          <mxGeometry x="90" y="240" width="120" height="40" as="geometry" />
        </mxCell>
        <mxCell id="wE-_WhlfQiMFLJXKhOxG-38" value="" style="endArrow=none;html=1;rounded=0;strokeColor=default;entryX=0.5;entryY=0;entryDx=0;entryDy=0;" edge="1" parent="1" target="wE-_WhlfQiMFLJXKhOxG-37" source="wE-_WhlfQiMFLJXKhOxG-1">
          <mxGeometry width="50" height="50" relative="1" as="geometry">
            <mxPoint x="320" y="310" as="sourcePoint" />
            <mxPoint x="690" y="320" as="targetPoint" />
          </mxGeometry>
        </mxCell>
        <mxCell id="wE-_WhlfQiMFLJXKhOxG-39" value="&lt;div align=&quot;center&quot;&gt;id_pedido&lt;/div&gt;" style="ellipse;whiteSpace=wrap;html=1;strokeWidth=1;align=center;" vertex="1" parent="1">
          <mxGeometry x="360" y="70" width="120" height="40.02" as="geometry" />
        </mxCell>
        <mxCell id="wE-_WhlfQiMFLJXKhOxG-40" value="" style="endArrow=none;html=1;rounded=0;strokeColor=default;exitX=0.25;exitY=0;exitDx=0;exitDy=0;" edge="1" parent="1" target="wE-_WhlfQiMFLJXKhOxG-39" source="wE-_WhlfQiMFLJXKhOxG-6">
          <mxGeometry width="50" height="50" relative="1" as="geometry">
            <mxPoint x="492.96000000000004" y="134.99999999999997" as="sourcePoint" />
            <mxPoint x="974" y="69.98" as="targetPoint" />
          </mxGeometry>
        </mxCell>
        <mxCell id="wE-_WhlfQiMFLJXKhOxG-41" value="&lt;div align=&quot;center&quot;&gt;hora&lt;/div&gt;" style="ellipse;whiteSpace=wrap;html=1;strokeWidth=1;align=center;" vertex="1" parent="1">
          <mxGeometry x="570" y="10.000000000000004" width="120" height="40" as="geometry" />
        </mxCell>
        <mxCell id="wE-_WhlfQiMFLJXKhOxG-42" value="" style="endArrow=none;html=1;rounded=0;strokeColor=default;exitX=0.575;exitY=0.017;exitDx=0;exitDy=0;exitPerimeter=0;" edge="1" parent="1" target="wE-_WhlfQiMFLJXKhOxG-41" source="wE-_WhlfQiMFLJXKhOxG-6">
          <mxGeometry width="50" height="50" relative="1" as="geometry">
            <mxPoint x="760" y="80" as="sourcePoint" />
            <mxPoint x="1130" y="90" as="targetPoint" />
          </mxGeometry>
        </mxCell>
        <mxCell id="wE-_WhlfQiMFLJXKhOxG-43" value="&lt;div align=&quot;center&quot;&gt;fecha&lt;/div&gt;" style="ellipse;whiteSpace=wrap;html=1;strokeWidth=1;align=center;" vertex="1" parent="1">
          <mxGeometry x="570" y="49.999999999999986" width="120" height="40" as="geometry" />
        </mxCell>
        <mxCell id="wE-_WhlfQiMFLJXKhOxG-44" value="" style="endArrow=none;html=1;rounded=0;strokeColor=default;exitX=0.75;exitY=0;exitDx=0;exitDy=0;" edge="1" parent="1" target="wE-_WhlfQiMFLJXKhOxG-43" source="wE-_WhlfQiMFLJXKhOxG-6">
          <mxGeometry width="50" height="50" relative="1" as="geometry">
            <mxPoint x="800" y="99.97999999999999" as="sourcePoint" />
            <mxPoint x="1170" y="109.97999999999999" as="targetPoint" />
          </mxGeometry>
        </mxCell>
        <mxCell id="wE-_WhlfQiMFLJXKhOxG-45" value="&lt;div align=&quot;center&quot;&gt;estado&lt;/div&gt;" style="ellipse;whiteSpace=wrap;html=1;strokeWidth=1;align=center;" vertex="1" parent="1">
          <mxGeometry x="560" y="90" width="120" height="40" as="geometry" />
        </mxCell>
        <mxCell id="wE-_WhlfQiMFLJXKhOxG-46" value="" style="endArrow=none;html=1;rounded=0;strokeColor=default;exitX=1;exitY=0.75;exitDx=0;exitDy=0;" edge="1" parent="1" target="wE-_WhlfQiMFLJXKhOxG-45" source="wE-_WhlfQiMFLJXKhOxG-6">
          <mxGeometry width="50" height="50" relative="1" as="geometry">
            <mxPoint x="810" y="115" as="sourcePoint" />
            <mxPoint x="1180" y="125" as="targetPoint" />
          </mxGeometry>
        </mxCell>
        <mxCell id="wE-_WhlfQiMFLJXKhOxG-47" value="&lt;div align=&quot;center&quot;&gt;estado&lt;/div&gt;" style="ellipse;whiteSpace=wrap;html=1;strokeWidth=1;align=center;" vertex="1" parent="1">
          <mxGeometry x="40" y="10" width="120" height="40" as="geometry" />
        </mxCell>
        <mxCell id="wE-_WhlfQiMFLJXKhOxG-48" value="" style="endArrow=none;html=1;rounded=0;strokeColor=default;" edge="1" parent="1" target="wE-_WhlfQiMFLJXKhOxG-47" source="wE-_WhlfQiMFLJXKhOxG-1">
          <mxGeometry width="50" height="50" relative="1" as="geometry">
            <mxPoint x="230" y="30" as="sourcePoint" />
            <mxPoint x="600" y="40" as="targetPoint" />
          </mxGeometry>
        </mxCell>
        <mxCell id="wE-_WhlfQiMFLJXKhOxG-49" value="&lt;div align=&quot;center&quot;&gt;precio_total&lt;br&gt;&lt;/div&gt;" style="ellipse;whiteSpace=wrap;html=1;strokeWidth=1;align=center;" vertex="1" parent="1">
          <mxGeometry x="580" y="210" width="120" height="40" as="geometry" />
        </mxCell>
        <mxCell id="wE-_WhlfQiMFLJXKhOxG-50" value="" style="endArrow=none;html=1;rounded=0;strokeColor=default;exitX=1;exitY=1;exitDx=0;exitDy=0;" edge="1" parent="1" target="wE-_WhlfQiMFLJXKhOxG-49" source="wE-_WhlfQiMFLJXKhOxG-6">
          <mxGeometry width="50" height="50" relative="1" as="geometry">
            <mxPoint x="810" y="200" as="sourcePoint" />
            <mxPoint x="1180" y="210" as="targetPoint" />
          </mxGeometry>
        </mxCell>
        <mxCell id="wE-_WhlfQiMFLJXKhOxG-51" value="contiene" style="rhombus;whiteSpace=wrap;html=1;strokeWidth=1;align=center;" vertex="1" parent="1">
          <mxGeometry x="470" y="310" width="80" height="80" as="geometry" />
        </mxCell>
        <mxCell id="wE-_WhlfQiMFLJXKhOxG-54" value="" style="endArrow=none;html=1;rounded=0;strokeColor=default;entryX=0.5;entryY=1;entryDx=0;entryDy=0;exitX=0.5;exitY=0;exitDx=0;exitDy=0;" edge="1" parent="1" source="wE-_WhlfQiMFLJXKhOxG-51" target="wE-_WhlfQiMFLJXKhOxG-6">
          <mxGeometry width="50" height="50" relative="1" as="geometry">
            <mxPoint x="480" y="270" as="sourcePoint" />
            <mxPoint x="530" y="220" as="targetPoint" />
          </mxGeometry>
        </mxCell>
        <mxCell id="wE-_WhlfQiMFLJXKhOxG-55" value="" style="endArrow=none;html=1;rounded=0;strokeColor=default;entryX=0.5;entryY=1;entryDx=0;entryDy=0;exitX=0.5;exitY=0;exitDx=0;exitDy=0;" edge="1" parent="1" source="wE-_WhlfQiMFLJXKhOxG-2" target="wE-_WhlfQiMFLJXKhOxG-51">
          <mxGeometry width="50" height="50" relative="1" as="geometry">
            <mxPoint x="510" y="390" as="sourcePoint" />
            <mxPoint x="509" y="350" as="targetPoint" />
          </mxGeometry>
        </mxCell>
        <mxCell id="wE-_WhlfQiMFLJXKhOxG-56" value="&lt;div align=&quot;right&quot;&gt;N&lt;/div&gt;" style="text;html=1;strokeColor=none;fillColor=none;align=right;verticalAlign=middle;whiteSpace=wrap;rounded=0;" vertex="1" parent="1">
          <mxGeometry x="450" y="200" width="60" height="30" as="geometry" />
        </mxCell>
        <mxCell id="wE-_WhlfQiMFLJXKhOxG-57" value="&lt;div align=&quot;right&quot;&gt;N&lt;/div&gt;" style="text;html=1;strokeColor=none;fillColor=none;align=right;verticalAlign=middle;whiteSpace=wrap;rounded=0;" vertex="1" parent="1">
          <mxGeometry x="450" y="440" width="60" height="30" as="geometry" />
        </mxCell>
        <mxCell id="wE-_WhlfQiMFLJXKhOxG-65" value="&lt;div align=&quot;center&quot;&gt;id_direccion&lt;/div&gt;" style="ellipse;whiteSpace=wrap;html=1;strokeWidth=1;align=center;" vertex="1" parent="1">
          <mxGeometry x="260" y="490" width="120" height="40" as="geometry" />
        </mxCell>
        <mxCell id="wE-_WhlfQiMFLJXKhOxG-66" value="" style="endArrow=none;html=1;rounded=0;strokeColor=default;exitX=0;exitY=0.5;exitDx=0;exitDy=0;" edge="1" parent="1" target="wE-_WhlfQiMFLJXKhOxG-65" source="wE-_WhlfQiMFLJXKhOxG-2">
          <mxGeometry width="50" height="50" relative="1" as="geometry">
            <mxPoint x="390" y="505" as="sourcePoint" />
            <mxPoint x="930" y="625" as="targetPoint" />
          </mxGeometry>
        </mxCell>
        <mxCell id="wE-_WhlfQiMFLJXKhOxG-68" value="&lt;div align=&quot;center&quot;&gt;nombre&lt;/div&gt;" style="ellipse;whiteSpace=wrap;html=1;strokeWidth=1;align=center;" vertex="1" parent="1">
          <mxGeometry x="270" y="440" width="120" height="40" as="geometry" />
        </mxCell>
        <mxCell id="wE-_WhlfQiMFLJXKhOxG-69" value="" style="endArrow=none;html=1;rounded=0;strokeColor=default;exitX=0;exitY=0.25;exitDx=0;exitDy=0;" edge="1" parent="1" target="wE-_WhlfQiMFLJXKhOxG-68" source="wE-_WhlfQiMFLJXKhOxG-2">
          <mxGeometry width="50" height="50" relative="1" as="geometry">
            <mxPoint x="450" y="450" as="sourcePoint" />
            <mxPoint x="930" y="575" as="targetPoint" />
          </mxGeometry>
        </mxCell>
        <mxCell id="wE-_WhlfQiMFLJXKhOxG-71" value="&lt;div align=&quot;center&quot;&gt;descripcion&lt;/div&gt;" style="ellipse;whiteSpace=wrap;html=1;strokeWidth=1;align=center;" vertex="1" parent="1">
          <mxGeometry x="280" y="540" width="120" height="40" as="geometry" />
        </mxCell>
        <mxCell id="wE-_WhlfQiMFLJXKhOxG-72" value="" style="endArrow=none;html=1;rounded=0;strokeColor=default;exitX=0;exitY=0.75;exitDx=0;exitDy=0;" edge="1" parent="1" target="wE-_WhlfQiMFLJXKhOxG-71" source="wE-_WhlfQiMFLJXKhOxG-2">
          <mxGeometry width="50" height="50" relative="1" as="geometry">
            <mxPoint x="470" y="550" as="sourcePoint" />
            <mxPoint x="950" y="675" as="targetPoint" />
          </mxGeometry>
        </mxCell>
        <mxCell id="wE-_WhlfQiMFLJXKhOxG-73" value="&lt;div align=&quot;center&quot;&gt;precio&lt;br&gt;&lt;/div&gt;" style="ellipse;whiteSpace=wrap;html=1;strokeWidth=1;align=center;" vertex="1" parent="1">
          <mxGeometry x="360" y="570" width="120" height="40" as="geometry" />
        </mxCell>
        <mxCell id="wE-_WhlfQiMFLJXKhOxG-74" value="" style="endArrow=none;html=1;rounded=0;strokeColor=default;exitX=0.192;exitY=1.05;exitDx=0;exitDy=0;exitPerimeter=0;" edge="1" parent="1" target="wE-_WhlfQiMFLJXKhOxG-73" source="wE-_WhlfQiMFLJXKhOxG-2">
          <mxGeometry width="50" height="50" relative="1" as="geometry">
            <mxPoint x="550" y="590" as="sourcePoint" />
            <mxPoint x="1030" y="715" as="targetPoint" />
          </mxGeometry>
        </mxCell>
        <mxCell id="wE-_WhlfQiMFLJXKhOxG-75" value="&lt;div align=&quot;center&quot;&gt;estado&lt;/div&gt;" style="ellipse;whiteSpace=wrap;html=1;strokeWidth=1;align=center;" vertex="1" parent="1">
          <mxGeometry x="430" y="610" width="120" height="40" as="geometry" />
        </mxCell>
        <mxCell id="wE-_WhlfQiMFLJXKhOxG-76" value="" style="endArrow=none;html=1;rounded=0;strokeColor=default;" edge="1" parent="1" target="wE-_WhlfQiMFLJXKhOxG-75" source="wE-_WhlfQiMFLJXKhOxG-2">
          <mxGeometry width="50" height="50" relative="1" as="geometry">
            <mxPoint x="675" y="600" as="sourcePoint" />
            <mxPoint x="1155" y="725" as="targetPoint" />
          </mxGeometry>
        </mxCell>
        <mxCell id="wE-_WhlfQiMFLJXKhOxG-77" value="contiene" style="rhombus;whiteSpace=wrap;html=1;strokeWidth=1;align=center;" vertex="1" parent="1">
          <mxGeometry x="470" y="-40" width="80" height="80" as="geometry" />
        </mxCell>
        <mxCell id="wE-_WhlfQiMFLJXKhOxG-78" value="" style="endArrow=none;html=1;rounded=0;strokeColor=default;entryX=0.5;entryY=1;entryDx=0;entryDy=0;" edge="1" parent="1" source="wE-_WhlfQiMFLJXKhOxG-77" target="wE-_WhlfQiMFLJXKhOxG-5">
          <mxGeometry width="50" height="50" relative="1" as="geometry">
            <mxPoint x="510" y="-40" as="sourcePoint" />
            <mxPoint x="520" y="210" as="targetPoint" />
          </mxGeometry>
        </mxCell>
        <mxCell id="wE-_WhlfQiMFLJXKhOxG-79" value="" style="endArrow=none;html=1;rounded=0;strokeColor=default;entryX=0.5;entryY=1;entryDx=0;entryDy=0;exitX=0.5;exitY=0;exitDx=0;exitDy=0;" edge="1" parent="1" source="wE-_WhlfQiMFLJXKhOxG-6" target="wE-_WhlfQiMFLJXKhOxG-77">
          <mxGeometry width="50" height="50" relative="1" as="geometry">
            <mxPoint x="520" y="-30" as="sourcePoint" />
            <mxPoint x="520" y="-100" as="targetPoint" />
          </mxGeometry>
        </mxCell>
        <mxCell id="wE-_WhlfQiMFLJXKhOxG-80" value="&lt;div align=&quot;left&quot;&gt;1&lt;/div&gt;" style="text;html=1;strokeColor=none;fillColor=none;align=left;verticalAlign=middle;whiteSpace=wrap;rounded=0;" vertex="1" parent="1">
          <mxGeometry x="500" y="110.02" width="60" height="30" as="geometry" />
        </mxCell>
        <mxCell id="wE-_WhlfQiMFLJXKhOxG-81" value="&lt;div align=&quot;left&quot;&gt;1&lt;/div&gt;" style="text;html=1;strokeColor=none;fillColor=none;align=left;verticalAlign=middle;whiteSpace=wrap;rounded=0;" vertex="1" parent="1">
          <mxGeometry x="500" y="-110.00000000000001" width="60" height="30" as="geometry" />
        </mxCell>
        <mxCell id="wE-_WhlfQiMFLJXKhOxG-83" value="" style="endArrow=none;html=1;rounded=0;strokeColor=default;exitX=0.842;exitY=-0.067;exitDx=0;exitDy=0;entryX=0;entryY=0.5;entryDx=0;entryDy=0;exitPerimeter=0;" edge="1" parent="1" source="wE-_WhlfQiMFLJXKhOxG-1" target="wE-_WhlfQiMFLJXKhOxG-5">
          <mxGeometry width="50" height="50" relative="1" as="geometry">
            <mxPoint x="520" y="320" as="sourcePoint" />
            <mxPoint x="440" y="-130" as="targetPoint" />
          </mxGeometry>
        </mxCell>
        <mxCell id="wE-_WhlfQiMFLJXKhOxG-84" value="&lt;div align=&quot;center&quot;&gt;Paga&lt;/div&gt;" style="rhombus;whiteSpace=wrap;html=1;strokeWidth=1;align=center;" vertex="1" parent="1">
          <mxGeometry x="270" y="-40" width="80" height="80" as="geometry" />
        </mxCell>
        <mxCell id="wE-_WhlfQiMFLJXKhOxG-85" value="1" style="text;html=1;strokeColor=none;fillColor=none;align=left;verticalAlign=middle;whiteSpace=wrap;rounded=0;" vertex="1" parent="1">
          <mxGeometry x="180" y="110.02000000000001" width="60" height="30" as="geometry" />
        </mxCell>
        <mxCell id="wE-_WhlfQiMFLJXKhOxG-86" value="N" style="text;html=1;strokeColor=none;fillColor=none;align=left;verticalAlign=middle;whiteSpace=wrap;rounded=0;" vertex="1" parent="1">
          <mxGeometry x="430" y="-155" width="60" height="30" as="geometry" />
        </mxCell>
        <mxCell id="wE-_WhlfQiMFLJXKhOxG-87" value="&lt;div align=&quot;center&quot;&gt;estado&lt;/div&gt;" style="ellipse;whiteSpace=wrap;html=1;strokeWidth=1;align=center;" vertex="1" parent="1">
          <mxGeometry x="480" y="-275" width="120" height="40" as="geometry" />
        </mxCell>
        <mxCell id="wE-_WhlfQiMFLJXKhOxG-88" value="" style="endArrow=none;html=1;rounded=0;strokeColor=default;exitX=0.4;exitY=0;exitDx=0;exitDy=0;entryX=0.367;entryY=1.05;entryDx=0;entryDy=0;entryPerimeter=0;exitPerimeter=0;" edge="1" parent="1" target="wE-_WhlfQiMFLJXKhOxG-87" source="wE-_WhlfQiMFLJXKhOxG-5">
          <mxGeometry width="50" height="50" relative="1" as="geometry">
            <mxPoint x="510" y="-155" as="sourcePoint" />
            <mxPoint x="1040" y="-245" as="targetPoint" />
          </mxGeometry>
        </mxCell>
        <mxCell id="wE-_WhlfQiMFLJXKhOxG-89" value="token" style="ellipse;whiteSpace=wrap;html=1;strokeWidth=1;align=center;" vertex="1" parent="1">
          <mxGeometry x="580" y="-300" width="120" height="40" as="geometry" />
        </mxCell>
        <mxCell id="wE-_WhlfQiMFLJXKhOxG-90" value="" style="endArrow=none;html=1;rounded=0;strokeColor=default;exitX=0.825;exitY=0.017;exitDx=0;exitDy=0;exitPerimeter=0;" edge="1" parent="1" target="wE-_WhlfQiMFLJXKhOxG-89" source="wE-_WhlfQiMFLJXKhOxG-5">
          <mxGeometry width="50" height="50" relative="1" as="geometry">
            <mxPoint x="569" y="-216.98000000000002" as="sourcePoint" />
            <mxPoint x="1140" y="-270" as="targetPoint" />
          </mxGeometry>
        </mxCell>
        <mxCell id="wE-_WhlfQiMFLJXKhOxG-91" value="id_cuenta" style="ellipse;whiteSpace=wrap;html=1;strokeWidth=1;align=center;" vertex="1" parent="1">
          <mxGeometry x="611" y="-256.02" width="120" height="40" as="geometry" />
        </mxCell>
        <mxCell id="wE-_WhlfQiMFLJXKhOxG-92" value="" style="endArrow=none;html=1;rounded=0;strokeColor=default;exitX=1;exitY=0;exitDx=0;exitDy=0;" edge="1" parent="1" target="wE-_WhlfQiMFLJXKhOxG-91" source="wE-_WhlfQiMFLJXKhOxG-5">
          <mxGeometry width="50" height="50" relative="1" as="geometry">
            <mxPoint x="580" y="-125.00000000000003" as="sourcePoint" />
            <mxPoint x="1171" y="-226.02" as="targetPoint" />
          </mxGeometry>
        </mxCell>
        <mxCell id="wE-_WhlfQiMFLJXKhOxG-93" value="orden_comercio" style="ellipse;whiteSpace=wrap;html=1;strokeWidth=1;align=center;" vertex="1" parent="1">
          <mxGeometry x="642" y="-205.51" width="120" height="40" as="geometry" />
        </mxCell>
        <mxCell id="wE-_WhlfQiMFLJXKhOxG-94" value="" style="endArrow=none;html=1;rounded=0;strokeColor=default;exitX=1;exitY=0.25;exitDx=0;exitDy=0;" edge="1" parent="1" target="wE-_WhlfQiMFLJXKhOxG-93" source="wE-_WhlfQiMFLJXKhOxG-5">
          <mxGeometry width="50" height="50" relative="1" as="geometry">
            <mxPoint x="611" y="-74.49000000000002" as="sourcePoint" />
            <mxPoint x="1202" y="-175.51" as="targetPoint" />
          </mxGeometry>
        </mxCell>
        <mxCell id="wE-_WhlfQiMFLJXKhOxG-95" value="monto" style="ellipse;whiteSpace=wrap;html=1;strokeWidth=1;align=center;" vertex="1" parent="1">
          <mxGeometry x="657.5" y="-165" width="120" height="40" as="geometry" />
        </mxCell>
        <mxCell id="wE-_WhlfQiMFLJXKhOxG-96" value="" style="endArrow=none;html=1;rounded=0;strokeColor=default;exitX=1;exitY=0.5;exitDx=0;exitDy=0;" edge="1" parent="1" target="wE-_WhlfQiMFLJXKhOxG-95" source="wE-_WhlfQiMFLJXKhOxG-5">
          <mxGeometry width="50" height="50" relative="1" as="geometry">
            <mxPoint x="626.5" y="-23.980000000000018" as="sourcePoint" />
            <mxPoint x="1217.5" y="-125" as="targetPoint" />
          </mxGeometry>
        </mxCell>
        <mxCell id="wE-_WhlfQiMFLJXKhOxG-97" value="modo de pago" style="ellipse;whiteSpace=wrap;html=1;strokeWidth=1;align=center;" vertex="1" parent="1">
          <mxGeometry x="650" y="-120" width="120" height="40" as="geometry" />
        </mxCell>
        <mxCell id="wE-_WhlfQiMFLJXKhOxG-98" value="" style="endArrow=none;html=1;rounded=0;strokeColor=default;exitX=1;exitY=0.5;exitDx=0;exitDy=0;" edge="1" parent="1" target="wE-_WhlfQiMFLJXKhOxG-97" source="wE-_WhlfQiMFLJXKhOxG-5">
          <mxGeometry width="50" height="50" relative="1" as="geometry">
            <mxPoint x="589" y="-128.98000000000002" as="sourcePoint" />
            <mxPoint x="1180" y="-230" as="targetPoint" />
          </mxGeometry>
        </mxCell>
        <mxCell id="wE-_WhlfQiMFLJXKhOxG-99" value="email_cliente" style="ellipse;whiteSpace=wrap;html=1;strokeWidth=1;align=center;" vertex="1" parent="1">
          <mxGeometry x="580" y="-90" width="120" height="40" as="geometry" />
        </mxCell>
        <mxCell id="wE-_WhlfQiMFLJXKhOxG-100" value="" style="endArrow=none;html=1;rounded=0;strokeColor=default;entryX=1;entryY=0.75;entryDx=0;entryDy=0;" edge="1" parent="1" source="wE-_WhlfQiMFLJXKhOxG-99" target="wE-_WhlfQiMFLJXKhOxG-5">
          <mxGeometry width="50" height="50" relative="1" as="geometry">
            <mxPoint x="508" y="-160" as="sourcePoint" />
            <mxPoint x="534.04" y="-223" as="targetPoint" />
          </mxGeometry>
        </mxCell>
      </root>
    </mxGraphModel>
  </diagram>
</mxfile>
